<svg width="19" height="21" viewBox="0 0 19 21" fill="none" xmlns="http://www.w3.org/2000/svg">
<g clip-path="url(#clip0_119_32)">
<path d="M7.23403 1.6703C7.93602 1.1903 8.84562 0.899902 10 0.899902C11.1544 0.899902 12.064 1.1903 12.766 1.6703C13.4003 2.11139 13.9024 2.71713 14.218 3.4223C14.614 4.2695 14.7412 5.1467 14.782 5.7203C15.5584 5.7779 16.354 5.9639 17.008 6.4007C17.8696 6.9755 18.4 7.9247 18.4 9.2999C18.4 10.7039 17.8744 11.6591 17.0032 12.2279C16.1812 12.7655 15.1372 12.8999 14.2 12.8999H5.80002C4.85202 12.8999 3.81162 12.7451 2.99202 12.1991C2.13042 11.6243 1.60002 10.6751 1.60002 9.2999C1.60002 7.9247 2.13042 6.9755 2.99202 6.4007C3.64602 5.9639 4.44282 5.7779 5.21922 5.7203C5.25882 5.1467 5.38482 4.2695 5.78082 3.4211C6.09753 2.71657 6.59933 2.11109 7.23282 1.6691M10 16.4999C10 17.1364 9.74717 17.7469 9.29708 18.197C8.84699 18.647 8.23654 18.8999 7.60002 18.8999C6.96351 18.8999 6.35306 18.647 5.90297 18.197C5.45288 17.7469 5.20002 17.1364 5.20002 16.4999C5.20002 15.8634 5.45288 15.2529 5.90297 14.8028C6.35306 14.3528 6.96351 14.0999 7.60002 14.0999C8.23654 14.0999 8.84699 14.3528 9.29708 14.8028C9.74717 15.2529 10 15.8634 10 16.4999ZM4.00002 18.2999C4.00002 18.5363 3.95347 18.7703 3.86301 18.9887C3.77255 19.2071 3.63996 19.4055 3.47282 19.5727C3.30567 19.7398 3.10724 19.8724 2.88885 19.9629C2.67047 20.0533 2.4364 20.0999 2.20002 20.0999C1.96365 20.0999 1.72958 20.0533 1.51119 19.9629C1.29281 19.8724 1.09438 19.7398 0.927232 19.5727C0.760087 19.4055 0.6275 19.2071 0.537041 18.9887C0.446583 18.7703 0.400024 18.5363 0.400024 18.2999C0.400024 17.8225 0.589667 17.3647 0.927232 17.0271C1.2648 16.6895 1.72263 16.4999 2.20002 16.4999C2.67741 16.4999 3.13525 16.6895 3.47282 17.0271C3.81038 17.3647 4.00002 17.8225 4.00002 18.2999Z" fill="#76B7CE"/>
</g>
<defs>
<clipPath id="clip0_119_32">
<rect width="19" height="21" fill="white"/>
</clipPath>
</defs>
</svg>
