<svg width="58" height="58" viewBox="0 0 58 58" fill="none" xmlns="http://www.w3.org/2000/svg">
<g clip-path="url(#clip0_60_133)">
<path d="M23.3824 21.6495C22.5955 18.2865 22.2021 16.6049 23.1252 15.7513C24.0483 14.8976 25.6766 15.4375 28.9333 16.5168L29.7758 16.7959C30.7012 17.1026 31.1639 17.256 31.6271 17.2112C32.0901 17.1664 32.5012 16.9287 33.3233 16.4532L34.0718 16.0203C36.965 14.3469 38.4115 13.5103 39.5341 14.1663C40.6565 14.8222 40.7114 16.5365 40.8213 19.9648L40.8498 20.8519C40.881 21.8261 40.8965 22.3133 41.0987 22.7468C41.301 23.1804 41.6669 23.5113 42.3984 24.173L43.0646 24.7755C45.6396 27.1045 46.9271 28.2689 46.6977 29.5279C46.4684 30.7869 44.874 31.3067 41.6852 32.3463L40.8602 32.6152C39.9541 32.9106 39.5011 33.0584 39.1628 33.3711C38.8248 33.6836 38.6398 34.126 38.2698 35.0106L37.9331 35.8158C36.6314 38.9285 35.9804 40.4848 34.7163 40.607C33.452 40.7291 32.4117 39.3361 30.3311 36.5501L29.7928 35.8294C29.2016 35.0377 28.906 34.6419 28.4947 34.4015C28.0837 34.1613 27.6035 34.1037 26.6431 33.9886L25.7689 33.8838C22.3893 33.4787 20.6996 33.2761 20.1477 32.0926C19.5957 30.909 20.5472 29.5282 22.4499 26.767L22.9422 26.0524C23.483 25.2678 23.7533 24.8754 23.8373 24.4142C23.9214 23.953 23.8096 23.4751 23.586 22.5195L23.3824 21.6495Z" fill="#F9FCFF"/>
<path opacity="0.5" fill-rule="evenodd" clip-rule="evenodd" d="M8.76097 28.613C8.39397 27.9091 8.66714 27.0408 9.3711 26.6739L14.1782 24.1678C14.8822 23.8008 15.7504 24.0739 16.1174 24.7779C16.4844 25.4819 16.2113 26.35 15.5073 26.717L10.7002 29.2232C9.9962 29.5902 9.12798 29.317 8.76097 28.613ZM8.33955 39.5316C7.97254 38.8276 8.24572 37.9594 8.9497 37.5924L14.9586 34.4598C15.6626 34.0927 16.5308 34.3659 16.8978 35.0699C17.2648 35.7739 16.9916 36.6421 16.2876 37.0091L10.2788 40.1417C9.57478 40.5087 8.70656 40.2356 8.33955 39.5316ZM17.1734 24.2273C16.8064 23.5233 17.0796 22.6552 17.7835 22.2882L18.9853 21.6617C19.6893 21.2947 20.5575 21.5678 20.9245 22.2718C21.2915 22.9758 21.0184 23.8439 20.3144 24.2109L19.1126 24.8374C18.4087 25.2045 17.5404 24.9313 17.1734 24.2273ZM14.5023 45.4892C14.1353 44.7852 14.4084 43.917 15.1124 43.55L16.3142 42.9235C17.0182 42.5565 17.8864 42.8296 18.2534 43.5336C18.6204 44.2376 18.3472 45.1058 17.6433 45.4728L16.4415 46.0994C15.7375 46.4664 14.8693 46.1932 14.5023 45.4892ZM20.5112 42.3566C20.1441 41.6526 20.4173 40.7844 21.1213 40.4174L24.7267 38.5378C25.4307 38.1708 26.2988 38.4439 26.6658 39.1479C27.0328 39.8519 26.7596 40.7201 26.0556 41.0871L22.4503 42.9667C21.7463 43.3337 20.8782 43.0606 20.5112 42.3566Z" fill="#F9FCFF"/>
</g>
<defs>
<clipPath id="clip0_60_133">
<rect width="46" height="46" fill="white" transform="translate(0 43.8794) rotate(-72.5345)"/>
</clipPath>
</defs>
</svg>
