<svg width="104" height="104" viewBox="0 0 104 104" fill="none" xmlns="http://www.w3.org/2000/svg">
<path d="M46.5 77.5H56.8333V56.8333H77.5V46.5H56.8333V25.8333H46.5V46.5H25.8333V56.8333H46.5V77.5ZM51.6667 103.333C44.5194 103.333 37.8028 101.977 31.5167 99.2646C25.2306 96.5521 19.7625 92.8708 15.1125 88.2208C10.4625 83.5708 6.78125 78.1028 4.06875 71.8167C1.35625 65.5306 0 58.8139 0 51.6667C0 44.5194 1.35625 37.8028 4.06875 31.5167C6.78125 25.2306 10.4625 19.7625 15.1125 15.1125C19.7625 10.4625 25.2306 6.78125 31.5167 4.06875C37.8028 1.35625 44.5194 0 51.6667 0C58.8139 0 65.5306 1.35625 71.8167 4.06875C78.1028 6.78125 83.5708 10.4625 88.2208 15.1125C92.8708 19.7625 96.5521 25.2306 99.2646 31.5167C101.977 37.8028 103.333 44.5194 103.333 51.6667C103.333 58.8139 101.977 65.5306 99.2646 71.8167C96.5521 78.1028 92.8708 83.5708 88.2208 88.2208C83.5708 92.8708 78.1028 96.5521 71.8167 99.2646C65.5306 101.977 58.8139 103.333 51.6667 103.333ZM51.6667 93C63.2056 93 72.9792 88.9958 80.9875 80.9875C88.9958 72.9792 93 63.2056 93 51.6667C93 40.1278 88.9958 30.3542 80.9875 22.3458C72.9792 14.3375 63.2056 10.3333 51.6667 10.3333C40.1278 10.3333 30.3542 14.3375 22.3458 22.3458C14.3375 30.3542 10.3333 40.1278 10.3333 51.6667C10.3333 63.2056 14.3375 72.9792 22.3458 80.9875C30.3542 88.9958 40.1278 93 51.6667 93Z" fill="#F5F0E4"/>
</svg>
