<svg width="27" height="27" viewBox="0 0 27 27" fill="none" xmlns="http://www.w3.org/2000/svg">
<path d="M13.5 1.5C20.1275 1.5 25.5 6.87258 25.5 13.5C25.5 20.1275 20.1275 25.5 13.5 25.5C6.87258 25.5 1.5 20.1275 1.5 13.5C1.5 6.87258 6.87258 1.5 13.5 1.5Z" stroke="#76B7CE" stroke-width="3"/>
<path d="M11.2235 9.69156C10.5003 9.93272 9.93272 10.5003 9.69164 11.2235L7.03212 19.2019C6.87434 19.6753 7.3247 20.1257 7.79806 19.9679L15.7765 17.3084C16.4997 17.0673 17.0673 16.4997 17.3084 15.7765L19.9679 7.79806C20.1257 7.32468 19.6753 6.87433 19.2019 7.03212L11.2235 9.69156Z" fill="#76B7CE"/>
<path d="M13.5 16C14.8807 16 16 14.8807 16 13.5C16 12.1193 14.8807 11 13.5 11C12.1193 11 11 12.1193 11 13.5C11 14.8807 12.1193 16 13.5 16Z" fill="#F5F0E4"/>
</svg>
