<svg width="24" height="24" viewBox="0 0 24 24" fill="none" xmlns="http://www.w3.org/2000/svg">
<path d="M6.85927 0.923077C6.85927 0.41328 6.4531 0 5.95208 0C5.45105 0 5.04488 0.41328 5.04488 0.923077V2.86678C3.30389 3.00863 2.16094 3.35676 1.32125 4.21116C0.48155 5.06556 0.139405 6.22852 0 8H24C23.8607 6.22852 23.5185 5.06556 22.6788 4.21116C21.8391 3.35676 20.6961 3.00863 18.9552 2.86678V0.923077C18.9552 0.41328 18.549 0 18.048 0C17.547 0 17.1408 0.41328 17.1408 0.923077V2.78511C16.336 2.76923 15.434 2.76923 14.4192 2.76923H9.58084C8.56596 2.76923 7.66397 2.76923 6.85927 2.78511V0.923077Z" fill="#76B7CE"/>
<path fill-rule="evenodd" clip-rule="evenodd" d="M0 12.5714C0 11.6126 1.36346e-07 10.7603 0.0154801 10H23.9845C24 10.7603 24 11.6126 24 12.5714V14.8571C24 19.1671 24 21.3222 22.5941 22.661C21.1883 24 18.9254 24 14.4 24H9.6C5.07451 24 2.81178 24 1.40588 22.661C1.43051e-07 21.3222 0 19.1671 0 14.8571V12.5714ZM18 14.8571C18.6628 14.8571 19.2 14.3455 19.2 13.7143C19.2 13.0831 18.6628 12.5714 18 12.5714C17.3372 12.5714 16.8 13.0831 16.8 13.7143C16.8 14.3455 17.3372 14.8571 18 14.8571ZM18 19.4286C18.6628 19.4286 19.2 18.9169 19.2 18.2857C19.2 17.6545 18.6628 17.1429 18 17.1429C17.3372 17.1429 16.8 17.6545 16.8 18.2857C16.8 18.9169 17.3372 19.4286 18 19.4286ZM13.2 13.7143C13.2 14.3455 12.6628 14.8571 12 14.8571C11.3372 14.8571 10.8 14.3455 10.8 13.7143C10.8 13.0831 11.3372 12.5714 12 12.5714C12.6628 12.5714 13.2 13.0831 13.2 13.7143ZM13.2 18.2857C13.2 18.9169 12.6628 19.4286 12 19.4286C11.3372 19.4286 10.8 18.9169 10.8 18.2857C10.8 17.6545 11.3372 17.1429 12 17.1429C12.6628 17.1429 13.2 17.6545 13.2 18.2857ZM6 14.8571C6.66274 14.8571 7.2 14.3455 7.2 13.7143C7.2 13.0831 6.66274 12.5714 6 12.5714C5.33726 12.5714 4.8 13.0831 4.8 13.7143C4.8 14.3455 5.33726 14.8571 6 14.8571ZM6 19.4286C6.66274 19.4286 7.2 18.9169 7.2 18.2857C7.2 17.6545 6.66274 17.1429 6 17.1429C5.33726 17.1429 4.8 17.6545 4.8 18.2857C4.8 18.9169 5.33726 19.4286 6 19.4286Z" fill="#76B7CE"/>
</svg>
