<svg width="140" height="139" viewBox="0 0 140 139" fill="none" xmlns="http://www.w3.org/2000/svg">
<mask id="path-1-outside-1_349_207" maskUnits="userSpaceOnUse" x="0" y="0" width="140" height="139" fill="black">
<rect fill="white" width="140" height="139"/>
<path d="M5 67.5C5 32.9822 32.9822 5 67.5 5V5C102.018 5 130 32.9822 130 67.5V67.5C130 102.018 102.018 130 67.5 130V130C32.9822 130 5 102.018 5 67.5V67.5Z"/>
</mask>
<path d="M5 67.5C5 32.9822 32.9822 5 67.5 5V5C102.018 5 130 32.9822 130 67.5V67.5C130 102.018 102.018 130 67.5 130V130C32.9822 130 5 102.018 5 67.5V67.5Z" fill="white"/>
<path d="M0 67.5C0 30.2208 30.2208 0 67.5 0H72.5C109.779 0 140 30.2208 140 67.5H120C120 35.7436 96.4949 10 67.5 10C35.7436 10 10 35.7436 10 67.5H0ZM140 67.5C140 106.988 107.988 139 68.5 139H67.5C30.2208 139 0 108.779 0 71.5L10 67.5C10 97.0472 35.7436 121 67.5 121C96.4949 121 120 97.0472 120 67.5H140ZM67.5 139C30.2208 139 0 108.779 0 71.5V67.5C0 30.2208 30.2208 0 67.5 0V10C35.7436 10 10 35.7436 10 67.5C10 97.0472 35.7436 121 67.5 121V139ZM72.5 0C109.779 0 140 30.2208 140 67.5C140 106.988 107.988 139 68.5 139L67.5 121C96.4949 121 120 97.0472 120 67.5C120 35.7436 96.4949 10 67.5 10L72.5 0Z" fill="#76B7CE" mask="url(#path-1-outside-1_349_207)"/>
<g clip-path="url(#clip0_349_207)">
<path d="M53.4531 38C50.7426 37.9986 48.0984 38.8101 45.8849 40.3226C43.6713 41.8351 41.9975 43.9741 41.094 46.445H27.25V54.8899H41.094C41.9963 57.3623 43.6695 59.5032 45.883 61.0176C48.0966 62.532 50.7415 63.3452 53.4531 63.3452C56.1648 63.3452 58.8097 62.532 61.0232 61.0176C63.2368 59.5032 64.91 57.3623 65.8123 54.8899H97.125V46.445H65.8123C64.9088 43.9741 63.2349 41.8351 61.0214 40.3226C58.8079 38.8101 56.1636 37.9986 53.4531 38ZM49.0859 50.6674C49.0859 49.5476 49.5461 48.4736 50.3651 47.6817C51.1841 46.8898 52.2949 46.445 53.4531 46.445C54.6114 46.445 55.7222 46.8898 56.5412 47.6817C57.3602 48.4736 57.8203 49.5476 57.8203 50.6674C57.8203 51.7873 57.3602 52.8613 56.5412 53.6532C55.7222 54.445 54.6114 54.8899 53.4531 54.8899C52.2949 54.8899 51.1841 54.445 50.3651 53.6532C49.5461 52.8613 49.0859 51.7873 49.0859 50.6674ZM70.9219 71.7798C68.2114 71.7784 65.5672 72.5899 63.3536 74.1024C61.1401 75.6149 59.4662 77.7539 58.5627 80.2248H27.25V88.6697H58.5627C59.465 91.1421 61.1382 93.283 63.3518 94.7974C65.5653 96.3118 68.2102 97.125 70.9219 97.125C73.6335 97.125 76.2784 96.3118 78.492 94.7974C80.7055 93.283 82.3788 91.1421 83.281 88.6697H97.125V80.2248H83.281C82.3775 77.7539 80.7037 75.6149 78.4901 74.1024C76.2766 72.5899 73.6324 71.7784 70.9219 71.7798ZM66.5547 84.4472C66.5547 83.3274 67.0148 82.2534 67.8338 81.4615C68.6528 80.6696 69.7636 80.2248 70.9219 80.2248C72.0801 80.2248 73.1909 80.6696 74.0099 81.4615C74.829 82.2534 75.2891 83.3274 75.2891 84.4472C75.2891 85.5671 74.829 86.6411 74.0099 87.433C73.1909 88.2248 72.0801 88.6697 70.9219 88.6697C69.7636 88.6697 68.6528 88.2248 67.8338 87.433C67.0148 86.6411 66.5547 85.5671 66.5547 84.4472Z" fill="black"/>
</g>
<defs>
<clipPath id="clip0_349_207">
<rect width="86" height="86" fill="white" transform="translate(38 38)"/>
</clipPath>
</defs>
</svg>
