<svg width="24" height="24" viewBox="0 0 24 24" fill="none" xmlns="http://www.w3.org/2000/svg">
<path d="M12 24C18.6274 24 24 18.6274 24 12C24 5.37259 18.6274 0 12 0C5.37259 0 0 5.37259 0 12C0 13.9196 0.450742 15.734 1.25216 17.3429C1.46512 17.7706 1.53601 18.2593 1.41254 18.7208L0.697811 21.392C0.387545 22.5516 1.44842 23.6124 2.60801 23.3021L5.27926 22.5875C5.74072 22.464 6.22945 22.5349 6.65703 22.7479C8.26604 23.5492 10.0804 24 12 24Z" fill="#76B7CE"/>
<path d="M6 11.5C6 12.3284 6.67158 13 7.5 13C8.32842 13 9 12.3284 9 11.5C9 10.6716 8.32842 10 7.5 10C6.67158 10 6 10.6716 6 11.5Z" fill="white"/>
<path d="M11 11.5C11 12.3284 11.6716 13 12.5 13C13.3284 13 14 12.3284 14 11.5C14 10.6716 13.3284 10 12.5 10C11.6716 10 11 10.6716 11 11.5Z" fill="white"/>
<path d="M16 11.5C16 12.3284 16.6716 13 17.5 13C18.3284 13 19 12.3284 19 11.5C19 10.6716 18.3284 10 17.5 10C16.6716 10 16 10.6716 16 11.5Z" fill="white"/>
</svg>
