<svg width="77" height="77" viewBox="0 0 77 77" fill="none" xmlns="http://www.w3.org/2000/svg">
<path opacity="0.5" d="M63.2571 65.3293C67.8337 62.8339 70.5833 59.6342 70.5833 56.1458C70.5833 52.4482 67.4943 49.075 62.4139 46.5208C56.5391 43.5672 48.0021 41.7083 38.5 41.7083C28.9979 41.7083 20.4607 43.5672 14.586 46.5208C9.50577 49.075 6.41663 52.4482 6.41663 56.1458C6.41663 59.8434 9.50577 63.2167 14.586 65.7708C20.4607 68.7244 28.9979 70.5833 38.5 70.5833C48.467 70.5833 57.3723 68.538 63.2571 65.3293Z" fill="#AF6740"/>
<path fill-rule="evenodd" clip-rule="evenodd" d="M16.0416 27.3178C16.0416 15.7744 26.0966 6.41669 38.5 6.41669C50.9034 6.41669 60.9583 15.7744 60.9583 27.3178C60.9583 38.7708 53.7902 52.1351 42.6069 56.9146C39.9999 58.0285 37.0001 58.0285 34.393 56.9146C23.2096 52.1351 16.0416 38.7708 16.0416 27.3178ZM38.5 35.2917C42.0439 35.2917 44.9166 32.4189 44.9166 28.875C44.9166 25.3312 42.0439 22.4584 38.5 22.4584C34.956 22.4584 32.0833 25.3312 32.0833 28.875C32.0833 32.4189 34.956 35.2917 38.5 35.2917Z" fill="#AF6740"/>
<ellipse cx="38.5" cy="31.5" rx="11.5" ry="10.5" fill="#AF6740"/>
<path fill-rule="evenodd" clip-rule="evenodd" d="M43.2051 15.7898C43.7232 15.9313 44.0918 16.3888 44.1194 16.9251C44.1406 17.16 44.1505 17.3516 44.1505 17.3516C44.1505 17.3516 44.4488 23.8844 36.9963 30.2608C33.9646 32.8548 31.4222 36.9593 30.8839 40.7106C30.8136 41.2121 30.4471 41.6219 29.9562 41.7472C29.4653 41.8724 28.9475 41.6885 28.6452 41.2811C26.2876 38.118 23.5013 32.1307 27.3306 24.7061C30.7835 18.0116 37.5671 14.3528 43.2051 15.7898Z" fill="white" stroke="white" stroke-miterlimit="2" stroke-linejoin="round"/>
<path fill-rule="evenodd" clip-rule="evenodd" d="M33.661 45.0735C33.1198 44.9279 32.7335 44.4505 32.705 43.8907C32.6841 43.6733 32.6749 43.5015 32.6749 43.5015C32.6749 43.5015 32.3765 36.9686 39.8291 30.5922C42.8335 28.0217 45.3572 23.9673 45.9263 20.2441C46.0049 19.7252 46.3887 19.3042 46.8987 19.1795C47.4091 19.0543 47.9442 19.2493 48.2537 19.6733C50.5961 22.8617 53.2835 28.8008 49.4947 36.147C46.0498 42.8246 39.2914 46.4821 33.661 45.0735Z" fill="white" stroke="white" stroke-miterlimit="2" stroke-linejoin="round"/>
</svg>
