<svg width="77" height="77" viewBox="0 0 77 77" fill="none" xmlns="http://www.w3.org/2000/svg">
<path opacity="0.5" d="M63.2571 65.3293C67.8338 62.8339 70.5834 59.6342 70.5834 56.1458C70.5834 52.4482 67.4944 49.075 62.414 46.5208C56.5392 43.5672 48.0021 41.7083 38.5 41.7083C28.998 41.7083 20.4608 43.5672 14.5861 46.5208C9.50583 49.075 6.41669 52.4482 6.41669 56.1458C6.41669 59.8434 9.50583 63.2167 14.5861 65.7708C20.4608 68.7244 28.998 70.5833 38.5 70.5833C48.467 70.5833 57.3724 68.538 63.2571 65.3293Z" fill="#76B7CE"/>
<path fill-rule="evenodd" clip-rule="evenodd" d="M16.0417 27.3178C16.0417 15.7744 26.0966 6.41669 38.5 6.41669C50.9034 6.41669 60.9584 15.7744 60.9584 27.3178C60.9584 38.7708 53.7903 52.1351 42.607 56.9146C39.9999 58.0285 37.0001 58.0285 34.393 56.9146C23.2096 52.1351 16.0417 38.7708 16.0417 27.3178ZM38.5 35.2917C42.0439 35.2917 44.9167 32.4189 44.9167 28.875C44.9167 25.3312 42.0439 22.4584 38.5 22.4584C34.9561 22.4584 32.0834 25.3312 32.0834 28.875C32.0834 32.4189 34.9561 35.2917 38.5 35.2917Z" fill="#76B7CE"/>
<ellipse cx="38.5" cy="31.5" rx="11.5" ry="10.5" fill="#76B7CE"/>
<path d="M51.2017 39.3278L46.3774 34.5033C45.5369 33.6623 44.285 33.4939 43.2677 33.9765L42.0597 32.7685C43.2314 30.9966 43.0381 28.5813 41.4791 27.0221L38.1397 23.6826C37.2867 22.8296 35.9935 24.1197 36.8484 24.9739L39.164 27.2895L37.8724 28.5811L35.5569 26.2656C34.7039 25.4126 33.4107 26.7026 34.2656 27.5569L36.581 29.8723L35.2893 31.1639L32.974 28.8485C32.1209 27.9955 30.8278 29.2856 31.6827 30.1398L35.0221 33.4792C36.5806 35.0382 38.9959 35.2325 40.7686 34.0599L41.9765 35.2679C41.4938 36.2853 41.6624 37.5369 42.5032 38.3775L47.3275 43.2024C48.3957 44.27 50.134 44.2704 51.2017 43.2021C52.2724 42.1312 52.273 40.3985 51.2017 39.3278Z" fill="white"/>
<path d="M38.0021 19.6528C35.2418 19.6528 32.6437 20.7303 30.6871 22.6872C28.7302 24.6437 27.6527 27.2417 27.6527 30.0021C27.6527 35.7089 32.2954 40.3516 38.0021 40.3516C39.148 40.3516 40.2703 40.1573 41.3364 39.7935L41.2116 39.6687C40.3382 38.7956 39.8796 37.6215 39.8843 36.4304C39.3552 36.5695 38.8071 36.6408 38.2506 36.6408C36.5413 36.6408 34.9361 35.9765 33.7304 34.7705L30.3913 31.431C28.7263 29.7689 29.8102 26.888 32.1758 26.7587C32.2518 25.3677 33.3652 24.2519 34.7587 24.1758C34.8879 21.8106 37.7676 20.7269 39.431 22.3913L42.7705 25.7307C44.4072 27.3674 44.9916 29.7324 44.4286 31.8828C44.4375 31.8829 44.4464 31.8829 44.4554 31.8829C45.6708 31.8829 46.8124 32.3549 47.669 33.2119L47.7935 33.3364C48.1574 32.2703 48.3515 31.148 48.3515 30.0021C48.3515 24.2954 43.7089 19.6528 38.0021 19.6528Z" fill="white"/>
<path d="M38.0022 16C34.2676 16 30.7532 17.4581 28.1057 20.1055C25.4581 22.7525 24 26.2674 24 30.0022C24 37.7229 30.2814 44.0043 38.0022 44.0043C40.1645 44.0043 42.2522 43.5115 44.1348 42.5922L42.749 41.2063C41.2561 41.8409 39.6494 42.178 38.0022 42.178C31.2886 42.178 25.8264 36.7158 25.8264 30.0022C25.8264 26.7538 27.0939 23.697 29.3959 21.3957C31.697 19.094 34.7537 17.8264 38.0022 17.8264C44.7158 17.8264 50.178 23.2886 50.178 30.0022C50.178 31.6491 49.8408 33.256 49.2061 34.7492L50.5779 36.121C51.5014 34.2226 52.0044 32.1281 52.0044 30.0022C52.0043 22.2814 45.7229 16 38.0022 16Z" fill="white"/>
</svg>
