<svg width="77" height="77" viewBox="0 0 77 77" fill="none" xmlns="http://www.w3.org/2000/svg">
<path opacity="0.5" d="M63.2571 65.3293C67.8338 62.8339 70.5834 59.6342 70.5834 56.1458C70.5834 52.4482 67.4944 49.075 62.414 46.5208C56.5392 43.5672 48.0021 41.7083 38.5 41.7083C28.998 41.7083 20.4608 43.5672 14.5861 46.5208C9.50583 49.075 6.41669 52.4482 6.41669 56.1458C6.41669 59.8434 9.50583 63.2167 14.5861 65.7708C20.4608 68.7244 28.998 70.5833 38.5 70.5833C48.467 70.5833 57.3724 68.538 63.2571 65.3293Z" fill="#D7B272"/>
<path fill-rule="evenodd" clip-rule="evenodd" d="M16.0417 27.3178C16.0417 15.7744 26.0966 6.41669 38.5 6.41669C50.9034 6.41669 60.9584 15.7744 60.9584 27.3178C60.9584 38.7708 53.7903 52.1351 42.607 56.9146C39.9999 58.0285 37.0001 58.0285 34.393 56.9146C23.2096 52.1351 16.0417 38.7708 16.0417 27.3178ZM38.5 35.2917C42.0439 35.2917 44.9167 32.4189 44.9167 28.875C44.9167 25.3312 42.0439 22.4584 38.5 22.4584C34.9561 22.4584 32.0834 25.3312 32.0834 28.875C32.0834 32.4189 34.9561 35.2917 38.5 35.2917Z" fill="#D7B272"/>
<ellipse cx="38.5" cy="31.5" rx="11.5" ry="10.5" fill="#D7B272"/>
<path fill-rule="evenodd" clip-rule="evenodd" d="M37.8926 21.847C37.3389 21.847 36.8911 22.2948 36.8911 22.8485C36.8911 23.4022 37.3389 23.8499 37.8926 23.8499H41.5326C41.9178 23.8499 42.2307 24.1629 42.2307 24.5529C42.2307 24.9429 41.9178 25.2559 41.5326 25.2559H41.21C40.6563 25.2559 40.2085 25.7037 40.2085 26.2574C40.2085 26.8111 40.6563 27.2588 41.21 27.2588H48.9715C49.5252 27.2588 49.973 26.8111 49.973 26.2574C49.973 25.7037 49.5252 25.2559 48.9715 25.2559H45.5626C45.1726 25.2559 44.8596 24.9429 44.8596 24.5529C44.8596 24.1629 45.1726 23.8499 45.5626 23.8499H45.9911C46.5448 23.8499 46.9926 23.4022 46.9926 22.8485C46.9926 22.2948 46.5448 21.847 45.9911 21.847H37.8926Z" fill="white"/>
<path fill-rule="evenodd" clip-rule="evenodd" d="M27.0881 37.8611C30.16 28.9104 34.9026 28.8767 38.48 30.7352C38.6196 30.8074 38.7689 30.8892 38.9181 30.9855C38.9181 30.9855 37.5892 37.163 35.5044 38.4292C33.4244 39.7004 27.0881 37.8611 27.0881 37.8611Z" fill="#FFE2B1"/>
<path fill-rule="evenodd" clip-rule="evenodd" d="M32.3652 36.0507C34.9989 34.25 37.5507 31.6692 39.3563 30.7352C42.8855 28.9055 47.5463 28.9103 50.6181 37.4952L38.2633 40.1385L32.3652 36.0459V36.0507Z" fill="#FFF5E3"/>
<path fill-rule="evenodd" clip-rule="evenodd" d="M50.1511 29.6904C50.1511 30.1815 49.7515 30.5811 49.2604 30.5811C48.7693 30.5811 48.3696 30.1815 48.3696 29.6904C48.3696 29.1993 48.7693 28.7996 49.2604 28.7996C49.7515 28.7996 50.1511 29.1993 50.1511 29.6904Z" fill="white"/>
<path fill-rule="evenodd" clip-rule="evenodd" d="M36.27 26.7533C36.27 27.1867 35.9185 27.5333 35.49 27.5333C35.0615 27.5333 34.71 27.1818 34.71 26.7533C34.71 26.3248 35.0615 25.9733 35.49 25.9733C35.9185 25.9733 36.27 26.3248 36.27 26.7533Z" fill="white"/>
<path fill-rule="evenodd" clip-rule="evenodd" d="M29.3992 29.8203C29.3992 30.2537 29.0478 30.6003 28.6192 30.6003C28.1907 30.6003 27.8392 30.2489 27.8392 29.8203C27.8392 29.3918 28.1907 29.0403 28.6192 29.0403C29.0478 29.0403 29.3992 29.3918 29.3992 29.8203Z" fill="white"/>
<path d="M41.6722 33.9852C42.103 33.9852 42.4522 33.636 42.4522 33.2052C42.4522 32.7744 42.103 32.4252 41.6722 32.4252C41.2414 32.4252 40.8922 32.7744 40.8922 33.2052C40.8922 33.636 41.2414 33.9852 41.6722 33.9852Z" fill="white"/>
<path fill-rule="evenodd" clip-rule="evenodd" d="M37.647 18C38.2393 18 38.7159 18.4767 38.7159 19.0689C38.7159 19.6611 38.2393 20.1378 37.647 20.1378H32.7022C32.2881 20.1378 31.9559 20.4748 31.9559 20.8889C31.9559 21.303 32.2881 21.6352 32.7022 21.64H33.0441C33.6363 21.64 34.113 22.1167 34.113 22.7089C34.113 23.3011 33.6363 23.7778 33.0441 23.7778H27.7815C27.1893 23.7778 26.7126 23.3011 26.7126 22.7089C26.7126 22.1167 27.1893 21.64 27.7815 21.64H29.2693C29.6833 21.64 30.0204 21.303 30.0204 20.8889C30.0204 20.4748 29.6881 20.1378 29.2693 20.1378H28.8118C28.2196 20.1378 27.743 19.6611 27.743 19.0689C27.743 18.4767 28.2196 18 28.8118 18H37.647Z" fill="white"/>
<path fill-rule="evenodd" clip-rule="evenodd" d="M43.1118 18H47.7774C48.3263 18 48.7741 18.443 48.7741 18.9967C48.7741 19.5504 48.3311 19.9933 47.7774 19.9933H43.1118C42.563 19.9933 42.1152 19.5504 42.1152 18.9967C42.1152 18.443 42.5581 18 43.1118 18Z" fill="white"/>
<path fill-rule="evenodd" clip-rule="evenodd" d="M36.3904 37.1244C47.7244 41.5059 52 38.1836 52 41.4962C52 42.1703 51.3981 42.7144 50.6519 42.7144H27.3481C26.6019 42.7144 26 42.1703 26 41.4962C26 40.0759 26.5778 33.3351 36.3904 37.1244Z" fill="#EDCA8F"/>
<path fill-rule="evenodd" clip-rule="evenodd" d="M41.6096 37.1244C30.2756 41.5059 26 38.1836 26 41.4962C26 42.1703 26.6019 42.7144 27.3481 42.7144H50.6519C51.3981 42.7144 52 42.1703 52 41.4962C52 40.0759 51.4222 33.3351 41.6096 37.1244Z" fill="white"/>
<path fill-rule="evenodd" clip-rule="evenodd" d="M46.8096 35.0155C45.2978 35.0011 43.4826 35.367 41.2629 36.2241C39.3226 36.9752 37.5989 37.4904 36.0774 37.8515C35.5574 37.9767 35.2396 38.4918 35.36 39.0118C35.4804 39.5318 36.0004 39.8496 36.5204 39.7293C38.1285 39.3489 39.9341 38.8048 41.9563 38.02C42.5678 37.7841 43.1407 37.5915 43.6704 37.4374C44.1326 37.3026 44.5129 37.6107 44.5129 38.0874C44.5129 38.5641 44.9126 38.983 45.4085 38.983C45.9044 38.983 46.3041 38.5833 46.3041 38.0874V37.8804C46.3041 37.37 46.7181 36.9222 47.2285 36.9559C47.3441 36.9655 47.4548 36.9752 47.5607 36.9896C48.0904 37.057 48.5718 36.6863 48.6392 36.1615C48.7067 35.6318 48.3359 35.1504 47.8111 35.083C47.4933 35.0396 47.1611 35.0204 46.8144 35.0155H46.8096Z" fill="#FFE2B1"/>
<path fill-rule="evenodd" clip-rule="evenodd" d="M37.8926 21.847C37.3389 21.847 36.8911 22.2948 36.8911 22.8485C36.8911 23.4022 37.3389 23.85 37.8926 23.85H41.5326C41.9226 23.85 42.2307 24.1678 42.2307 24.553C42.2307 24.9381 41.9178 25.2559 41.5326 25.2559H41.21C40.6563 25.2559 40.2085 25.7037 40.2085 26.2574C40.2085 26.8111 40.6563 27.2589 41.21 27.2589H48.9715C49.5252 27.2589 49.973 26.8111 49.973 26.2574C49.973 25.7037 49.5252 25.2559 48.9715 25.2559H45.5626C45.1726 25.2559 44.8596 24.943 44.8596 24.553C44.8596 24.163 45.1726 23.85 45.5626 23.85H45.9911C46.5448 23.85 46.9926 23.4022 46.9926 22.8485C46.9926 22.2948 46.5448 21.847 45.9911 21.847H37.8926ZM43.1118 18C42.5581 18 42.1152 18.443 42.1152 18.9967C42.1152 19.5504 42.5581 19.9933 43.1118 19.9933H47.7774C48.3263 19.9933 48.7741 19.5504 48.7741 18.9967C48.7741 18.443 48.3311 18 47.7774 18H43.1118ZM28.8118 18C28.2196 18 27.743 18.4767 27.743 19.0689C27.743 19.6611 28.2196 20.1378 28.8118 20.1378H29.2693C29.6833 20.1378 30.0204 20.4748 30.0204 20.8889C30.0204 21.303 29.6833 21.64 29.2693 21.64H27.7815C27.1893 21.64 26.7126 22.1167 26.7126 22.7089C26.7126 23.3011 27.1893 23.7778 27.7815 23.7778H33.0441C33.6363 23.7778 34.113 23.3011 34.113 22.7089C34.113 22.1167 33.6363 21.64 33.0441 21.64H32.7022C32.2881 21.64 31.9559 21.303 31.9559 20.8889C31.9559 20.4748 32.2881 20.1426 32.7022 20.1378H37.6518C38.2441 20.1378 38.7207 19.6611 38.7207 19.0689C38.7207 18.4767 38.2441 18 37.6518 18H28.8118Z" fill="#FFF5E3"/>
<path d="M47.7052 38.7904C47.9711 38.7904 48.1867 38.5748 48.1867 38.3089C48.1867 38.043 47.9711 37.8274 47.7052 37.8274C47.4393 37.8274 47.2237 38.043 47.2237 38.3089C47.2237 38.5748 47.4393 38.7904 47.7052 38.7904Z" fill="#EDCA8F"/>
<path d="M45.0041 41.3663C45.27 41.3663 45.4855 41.1507 45.4855 40.8848C45.4855 40.6189 45.27 40.4033 45.0041 40.4033C44.7381 40.4033 44.5226 40.6189 44.5226 40.8848C44.5226 41.1507 44.7381 41.3663 45.0041 41.3663Z" fill="#EDCA8F"/>
<path d="M40.8104 40.5863C41.0763 40.5863 41.2919 40.3707 41.2919 40.1048C41.2919 39.8389 41.0763 39.6233 40.8104 39.6233C40.5445 39.6233 40.3289 39.8389 40.3289 40.1048C40.3289 40.3707 40.5445 40.5863 40.8104 40.5863Z" fill="#EDCA8F"/>
<path d="M31.1567 38.4918C31.4226 38.4918 31.6381 38.2763 31.6381 38.0104C31.6381 37.7444 31.4226 37.5289 31.1567 37.5289C30.8907 37.5289 30.6752 37.7444 30.6752 38.0104C30.6752 38.2763 30.8907 38.4918 31.1567 38.4918Z" fill="white"/>
</svg>
