<svg width="60" height="76" viewBox="0 0 60 76" fill="none" xmlns="http://www.w3.org/2000/svg">
<path d="M30 0C22.0463 0.00898008 14.4209 3.15755 8.79676 8.75496C3.17262 14.3524 0.00902295 21.9415 0 29.8574C0 55.4059 27.2727 74.7013 28.4352 75.5088C28.8938 75.8285 29.4401 76 30 76C30.5599 76 31.1062 75.8285 31.5648 75.5088C32.7273 74.7013 60 55.4059 60 29.8574C59.991 21.9415 56.8274 14.3524 51.2032 8.75496C45.5791 3.15755 37.9537 0.00898008 30 0ZM30 19.0002C32.1576 19.0002 34.2668 19.637 36.0608 20.83C37.8548 22.023 39.253 23.7186 40.0787 25.7025C40.9044 27.6865 41.1204 29.8695 40.6995 31.9756C40.2785 34.0817 39.2396 36.0163 37.7139 37.5347C36.1882 39.0531 34.2444 40.0871 32.1283 40.5061C30.0121 40.925 27.8186 40.71 25.8253 39.8882C23.8319 39.0665 22.1281 37.6749 20.9294 35.8894C19.7307 34.1039 19.0909 32.0048 19.0909 29.8574C19.0909 26.9779 20.2403 24.2163 22.2861 22.1802C24.332 20.1441 27.1067 19.0002 30 19.0002Z" fill="#76B7CE"/>
</svg>
