<svg width="77" height="77" viewBox="0 0 77 77" fill="none" xmlns="http://www.w3.org/2000/svg">
<path opacity="0.5" d="M63.2571 65.3293C67.8338 62.8339 70.5834 59.6342 70.5834 56.1458C70.5834 52.4482 67.4944 49.075 62.414 46.5208C56.5392 43.5672 48.0021 41.7083 38.5 41.7083C28.998 41.7083 20.4608 43.5672 14.5861 46.5208C9.50583 49.075 6.41669 52.4482 6.41669 56.1458C6.41669 59.8434 9.50583 63.2167 14.5861 65.7708C20.4608 68.7244 28.998 70.5833 38.5 70.5833C48.467 70.5833 57.3724 68.538 63.2571 65.3293Z" fill="#AB6037"/>
<path fill-rule="evenodd" clip-rule="evenodd" d="M16.0417 27.3178C16.0417 15.7744 26.0966 6.41669 38.5 6.41669C50.9034 6.41669 60.9584 15.7744 60.9584 27.3178C60.9584 38.7708 53.7903 52.1351 42.607 56.9146C39.9999 58.0285 37.0001 58.0285 34.393 56.9146C23.2096 52.1351 16.0417 38.7708 16.0417 27.3178ZM38.5 35.2917C42.0439 35.2917 44.9167 32.4189 44.9167 28.875C44.9167 25.3312 42.0439 22.4584 38.5 22.4584C34.9561 22.4584 32.0834 25.3312 32.0834 28.875C32.0834 32.4189 34.9561 35.2917 38.5 35.2917Z" fill="#AB6037"/>
<ellipse cx="38.5" cy="31.5" rx="11.5" ry="10.5" fill="#AB6037"/>
<path d="M37.9783 17C37.8894 17 37.8 17.0205 37.7182 17.0628L25.8685 23.2698C25.6822 23.3714 25.5643 23.5636 25.5643 23.7724V24.9009H50.3923V23.7724C50.3923 23.5636 50.2744 23.3714 50.0881 23.2698L38.2384 17.0628C38.1566 17.0205 38.0672 17 37.9783 17ZM26.6928 26.0295V26.8197C26.6928 27.525 27.1668 28.1002 27.8214 28.2469V37.315H32.3356V28.2469C32.9901 28.1002 33.4641 27.525 33.4641 26.8197V26.0295H26.6928ZM34.5927 26.0295V26.8197C34.5927 27.525 35.0666 28.1002 35.7212 28.2469V37.315H40.2354V28.2469C40.89 28.1002 41.3639 27.525 41.3639 26.8197V26.0295H34.5927ZM42.4925 26.0295V26.8197C42.4925 27.525 42.9665 28.1002 43.621 28.2469V37.315H48.1352V28.2469C48.7898 28.1002 49.2638 27.525 49.2638 26.8197V26.0295H42.4925ZM26.1285 38.4435C25.8803 38.4435 25.6042 38.5334 25.4067 38.697C25.1471 38.9171 25 39.2444 25 39.5886V41.1403C25 41.84 25.5189 42.3934 26.1848 42.3934H49.7156C50.3702 42.3934 50.9004 41.8578 50.9004 41.1976V39.6459C50.9004 38.9857 50.3702 38.449 49.7156 38.449C49.7156 38.449 26.1737 38.4435 26.1285 38.4435Z" fill="white"/>
</svg>
