<svg width="77" height="77" viewBox="0 0 77 77" fill="none" xmlns="http://www.w3.org/2000/svg">
<path opacity="0.5" d="M63.2571 65.3293C67.8337 62.8339 70.5833 59.6342 70.5833 56.1458C70.5833 52.4482 67.4943 49.075 62.4139 46.5208C56.5391 43.5672 48.0021 41.7083 38.5 41.7083C28.9979 41.7083 20.4607 43.5672 14.586 46.5208C9.50577 49.075 6.41663 52.4482 6.41663 56.1458C6.41663 59.8434 9.50577 63.2167 14.586 65.7708C20.4607 68.7244 28.9979 70.5833 38.5 70.5833C48.467 70.5833 57.3723 68.538 63.2571 65.3293Z" fill="#6836CC"/>
<path fill-rule="evenodd" clip-rule="evenodd" d="M16.0416 27.3178C16.0416 15.7744 26.0966 6.41669 38.5 6.41669C50.9034 6.41669 60.9583 15.7744 60.9583 27.3178C60.9583 38.7708 53.7902 52.1351 42.6069 56.9146C39.9999 58.0285 37.0001 58.0285 34.393 56.9146C23.2096 52.1351 16.0416 38.7708 16.0416 27.3178ZM38.5 35.2917C42.0439 35.2917 44.9166 32.4189 44.9166 28.875C44.9166 25.3312 42.0439 22.4584 38.5 22.4584C34.956 22.4584 32.0833 25.3312 32.0833 28.875C32.0833 32.4189 34.956 35.2917 38.5 35.2917Z" fill="#6836CC"/>
<ellipse cx="38.5" cy="31.5" rx="11.5" ry="10.5" fill="#6836CC"/>
<path d="M51.5237 20.4164C50.9592 18.8181 49.3969 17.8279 47.7504 18.0248C47.3794 18.0692 47.0197 18.2024 46.6544 18.3658C46.292 18.5278 45.8496 18.7546 45.3062 19.0333L41.7885 20.837C41.3844 21.044 41.0682 21.206 40.7972 21.4184C40.0999 21.9652 39.6233 22.7562 39.4582 23.6404C39.3941 23.9839 39.3942 24.3463 39.3945 24.8097V24.9199C39.3945 25.0687 39.3945 25.2109 39.3948 25.3466L39.3945 34.0552C38.2905 32.9927 36.8053 32.3418 35.1719 32.3418C31.7635 32.3418 29.0005 35.1756 29.0005 38.6709C29.0005 42.1664 31.7635 45 35.1719 45C38.5802 45 41.3433 42.1664 41.3433 38.6709V29.6288C41.9554 29.9494 42.6602 30.0907 43.3814 30.0045C43.7524 29.9602 44.1121 29.8269 44.4775 29.6636C44.8398 29.5016 45.2821 29.2748 45.8256 28.9961L49.3431 27.1924C49.7474 26.9853 50.0636 26.8234 50.3345 26.611C51.0319 26.0642 51.5085 25.2732 51.6735 24.389C51.7376 24.0455 51.7375 23.6831 51.7373 23.2197V23.1094C51.7373 22.4863 51.7373 21.9792 51.7166 21.5743C51.6955 21.1661 51.6509 20.7767 51.5237 20.4164Z" fill="white"/>
</svg>
