<svg width="20" height="23" viewBox="0 0 20 23" fill="none" xmlns="http://www.w3.org/2000/svg">
<path d="M20 17.7048V20.8816C19.9987 21.443 19.7764 21.9811 19.3818 22.3781C18.9872 22.7751 18.4524 22.9987 17.8943 23H2.1057C1.54764 22.9987 1.01281 22.7751 0.6182 22.3781C0.223589 21.9811 0.00131671 21.443 0 20.8816V17.7048C0.00394676 16.3016 0.559751 14.9571 1.54598 13.9649C2.53221 12.9727 3.86869 12.4135 5.26342 12.4096H14.7366C16.1313 12.4135 17.4678 12.9727 18.454 13.9649C19.4402 14.9571 19.9961 16.3016 20 17.7048ZM4.6219 5.40891C4.62223 4.33887 4.93793 3.29296 5.52908 2.40341C6.12024 1.51386 6.9603 0.820637 7.94304 0.411379C8.92579 0.00212081 10.0071 -0.104788 11.0502 0.104169C12.0934 0.313127 13.0515 0.828567 13.8035 1.58532C14.5554 2.34207 15.0675 3.30614 15.2749 4.35565C15.4823 5.40515 15.3757 6.49296 14.9686 7.48151C14.5614 8.47007 13.8721 9.31499 12.9877 9.90944C12.1033 10.5039 11.0636 10.8212 10 10.8212C8.57364 10.8212 7.2057 10.2511 6.19711 9.23645C5.18852 8.22177 4.6219 6.84389 4.6219 5.40891Z" fill="#76B7CE"/>
</svg>
