<svg width="20" height="20" viewBox="0 0 20 20" fill="none" xmlns="http://www.w3.org/2000/svg">
<path d="M18.3299 3.57006C18.3299 3.57006 18.5999 2.77006 18.0199 2.21006C17.4899 1.69006 16.7999 1.97006 16.7999 1.97006C16.1899 2.27006 11.0399 5.44006 9.1299 7.54006C8.2699 8.50006 7.0699 11.3301 8.0399 12.3601C8.9599 13.3401 11.9999 12.1901 12.8299 11.3601C14.8899 9.30006 18.0399 4.19006 18.3299 3.57006ZM1.3999 17.6501C3.7699 16.0901 2.8599 14.2401 4.6299 13.0101C5.5599 12.3601 6.8499 12.3901 7.7099 13.3001C8.3399 13.9701 8.5099 15.8701 7.5499 16.7601C5.9799 18.2101 3.5499 18.3101 1.3999 17.6501Z" fill="#313131"/>
</svg>
