<svg width="41" height="41" viewBox="0 0 41 41" fill="none" xmlns="http://www.w3.org/2000/svg">
<path d="M6.14981 12.3C6.14981 8.33453 9.35934 5.125 13.3248 5.125C17.2903 5.125 20.4998 8.33453 20.4998 12.3C20.4998 16.2655 17.2903 19.475 13.3248 19.475C9.35934 19.475 6.14981 16.2655 6.14981 12.3ZM2.0498 33.825C2.0498 27.5981 7.09793 22.55 13.3248 22.55C19.5517 22.55 24.5998 27.5981 24.5998 33.825V34.2094C24.5998 35.6956 23.3954 36.9 21.9092 36.9H4.74043C3.25418 36.9 2.0498 35.6956 2.0498 34.2094V33.825ZM29.7248 8.2C33.1201 8.2 35.8748 10.9547 35.8748 14.35C35.8748 17.7453 33.1201 20.5 29.7248 20.5C26.3295 20.5 23.5748 17.7453 23.5748 14.35C23.5748 10.9547 26.3295 8.2 29.7248 8.2ZM29.7248 23.575C34.8178 23.575 38.9498 27.707 38.9498 32.8V34.235C38.9498 35.7084 37.7582 36.9 36.2848 36.9H27.0086C27.4314 36.0992 27.6748 35.1831 27.6748 34.2094V33.825C27.6748 30.5258 26.5601 27.4892 24.6959 25.0677C26.1437 24.1259 27.8734 23.575 29.7248 23.575Z" fill="#2859C5"/>
</svg>
