<?xml version="1.0" encoding="UTF-8"?>
<svg id="Calque_2" data-name="Calque 2" xmlns="http://www.w3.org/2000/svg" viewBox="0 0 762.13 911.83">
  <defs>
    <style>
      .cls-1 {
        fill: #010101;
      }

      .cls-2 {
        fill: #ab6037;
      }

      .cls-3 {
        fill: #f5f0e4;
      }
    </style>
  </defs>
  <g id="Calque_1-2" data-name="Calque 1">
    <path class="cls-3" d="M710.59,418.17v-43.83c0-170-146.74-309.1-326.08-309.1h0c-179.34,0-326.08,139.09-326.08,309.1v37.88C22.65,441.46,0,484.72,0,533.01h0c0,88.04,75.29,159.41,168.17,159.41h425.78c92.88,0,168.17-71.37,168.17-159.41h0c0-45.11-19.77-85.84-51.54-114.84Z"/>
    <path class="cls-1" d="M339.79,236.14h0c15.34,0,27.79,12.45,27.79,27.79v100.61c0,14.82-12.03,26.85-26.85,26.85h-.94c-14.82,0-26.85-12.03-26.85-26.85v-101.56c0-14.82,12.03-26.85,26.85-26.85Z"/>
    <path class="cls-1" d="M423.3,236.14h0c15.34,0,27.79,12.45,27.79,27.79v100.61c0,14.82-12.03,26.85-26.85,26.85h-.94c-14.82,0-26.85-12.03-26.85-26.85v-101.56c0-14.82,12.03-26.85,26.85-26.85Z"/>
    <path class="cls-2" d="M297.76,378.84h164.4c13.25,0,24.01,10.76,24.01,24.01h0c0,12.02-9.76,21.79-21.79,21.79h-166.62c-12.02,0-21.79-9.76-21.79-21.79v-2.22c0-12.02,9.76-21.79,21.79-21.79Z"/>
    <path class="cls-3" d="M468.12,79.14s92.66-116.32,80.55-66.37c-12.11,49.96-74.18,78.72-74.18,78.72l-6.38-12.35Z"/>
    <path class="cls-3" d="M468.12,86.09s14.32-116.98,26.86-78.23c12.54,38.75-17.43,83.92-17.43,83.92l-9.43-5.69Z"/>
    <path class="cls-3" d="M471.48,72.78s117.12-13.11,82.32,8.05c-34.8,21.16-85.68,2.44-85.68,2.44l3.36-10.49Z"/>
    <g>
      <path class="cls-2" d="M331.24,882.57h-60.73c-8.08,0-14.63,6.55-14.63,14.63s6.55,14.63,14.63,14.63h66.28c8.08,0,14.63-6.55,14.63-14.63v-201.26h-20.18v186.63Z"/>
      <path class="cls-2" d="M509.04,882.57h-60.73v-186.63h-20.18v201.26c0,8.08,6.55,14.63,14.63,14.63h66.28c8.08,0,14.63-6.55,14.63-14.63s-6.55-14.63-14.63-14.63Z"/>
    </g>
  </g>
</svg>