<svg width="23" height="23" viewBox="0 0 23 23" fill="none" xmlns="http://www.w3.org/2000/svg">
<g clip-path="url(#clip0_248_546)">
<path fill-rule="evenodd" clip-rule="evenodd" d="M15.2502 1.24996C15.2502 0.651656 15.7352 0.166626 16.3335 0.166626H20.6668C21.8635 0.166626 22.8335 1.13668 22.8335 2.33329V6.66663C22.8335 7.26494 22.3485 7.74996 21.7502 7.74996C21.1518 7.74996 20.6668 7.26493 20.6668 6.66663V3.86391L15.7562 8.77456C15.702 8.82876 15.6434 8.87598 15.5818 8.91638C16.7315 10.387 17.4168 12.2384 17.4168 14.25C17.4168 19.0365 13.5367 22.9166 8.75016 22.9166C3.96369 22.9166 0.0834961 19.0365 0.0834961 14.25C0.0834961 9.46347 3.96369 5.58329 8.75016 5.58329C10.7607 5.58329 12.6114 6.26793 14.0817 7.41679C14.1221 7.35496 14.1694 7.29635 14.2237 7.24207L19.1324 2.33329H16.3335C15.7352 2.33329 15.2502 1.84826 15.2502 1.24996ZM8.75016 20.746C5.1625 20.746 2.25412 17.8376 2.25412 14.25C2.25412 10.6623 5.1625 7.75391 8.75016 7.75391C12.3378 7.75391 15.2462 10.6623 15.2462 14.25C15.2462 17.8376 12.3378 20.746 8.75016 20.746Z" fill="#313131"/>
</g>
<defs>
<clipPath id="clip0_248_546">
<rect width="23" height="23" fill="white"/>
</clipPath>
</defs>
</svg>
