<svg width="23" height="23" viewBox="0 0 23 23" fill="none" xmlns="http://www.w3.org/2000/svg">
<mask id="path-1-outside-1_248_565" maskUnits="userSpaceOnUse" x="-0.700195" y="-0.699951" width="24" height="24" fill="black">
<rect fill="white" x="-0.700195" y="-0.699951" width="24" height="24"/>
<path d="M11.2998 22.3C9.78588 22.3 8.35996 22.0108 7.02203 21.4323C5.68411 20.8529 4.51892 20.0666 3.52648 19.0734C2.53403 18.0801 1.74774 16.9149 1.16759 15.5778C0.587441 14.2407 0.298182 12.8148 0.299812 11.3C0.299812 9.78123 0.589071 8.35408 1.16759 7.0186C1.74692 5.68231 2.53322 4.51834 3.52648 3.52671C4.51974 2.53508 5.68492 1.74879 7.02203 1.16783C8.35996 0.589308 9.78588 0.300049 11.2998 0.300049C12.8186 0.300049 14.2458 0.589308 15.5813 1.16783C16.9175 1.74716 18.0819 2.53346 19.0744 3.52671C20.0668 4.51997 20.8527 5.68394 21.432 7.0186C22.0105 8.3549 22.2998 9.78205 22.2998 11.3C22.2998 12.814 22.0105 14.2399 21.432 15.5778C20.8527 16.9157 20.0664 18.0809 19.0731 19.0734C18.0799 20.0658 16.9159 20.8521 15.5813 21.4323C14.2466 22.0124 12.8194 22.3017 11.2998 22.3ZM11.2998 21.0876C12.0168 20.166 12.6084 19.2612 13.0745 18.373C13.5397 17.4849 13.9182 16.4908 14.2099 15.3908H8.3897C8.71318 16.5527 9.0994 17.5778 9.54836 18.4659C9.99814 19.3541 10.582 20.228 11.2998 21.0876ZM9.74392 20.9043C9.17355 20.232 8.65288 19.4009 8.18192 18.4109C7.71096 17.4217 7.36059 16.4146 7.13081 15.3896H2.44359C3.14433 16.9092 4.13718 18.1559 5.42214 19.1296C6.70792 20.1025 8.14851 20.694 9.74392 20.9043ZM12.8557 20.9043C14.4511 20.694 15.8917 20.1025 17.1775 19.1296C18.4624 18.1559 19.4553 16.9092 20.156 15.3896H15.47C15.1604 16.4301 14.7705 17.445 14.3004 18.4342C13.8294 19.4242 13.3478 20.2483 12.8557 20.9043ZM1.94492 14.1686H6.87659C6.7837 13.6667 6.71851 13.1778 6.68103 12.7019C6.64192 12.2269 6.62237 11.7596 6.62237 11.3C6.62237 10.8405 6.64151 10.3732 6.67981 9.89816C6.71811 9.42312 6.78329 8.93423 6.87537 8.43149H1.94614C1.81333 8.85519 1.70944 9.31679 1.63448 9.81627C1.55951 10.3149 1.52203 10.8095 1.52203 11.3C1.52203 11.7906 1.55911 12.2856 1.63326 12.785C1.7074 13.2845 1.81129 13.7453 1.94492 14.1674M8.09881 14.1674H14.5008C14.5937 13.6663 14.6589 13.1855 14.6964 12.7252C14.7355 12.2656 14.755 11.7906 14.755 11.3C14.755 10.8095 14.7359 10.3345 14.6976 9.87493C14.6593 9.41538 14.5941 8.93464 14.502 8.43271H8.09759C8.00551 8.93382 7.94033 9.41456 7.90203 9.87493C7.86374 10.3345 7.84459 10.8095 7.84459 11.3C7.84459 11.7906 7.86374 12.2656 7.90203 12.7252C7.94033 13.1847 8.00673 13.6655 8.09881 14.1674ZM15.7243 14.1674H20.6547C20.7875 13.7445 20.8914 13.2837 20.9664 12.785C21.0405 12.2856 21.0776 11.7906 21.0776 11.3C21.0776 10.8095 21.0405 10.3145 20.9664 9.81505C20.8922 9.31556 20.7883 8.85479 20.6547 8.43271H15.723C15.8159 8.93382 15.8811 9.42231 15.9186 9.89816C15.9577 10.374 15.9773 10.8413 15.9773 11.3C15.9773 11.7588 15.9581 12.2261 15.9198 12.7019C15.8815 13.1778 15.8163 13.6667 15.7243 14.1686M15.47 7.21049H20.156C19.4398 5.65908 18.4588 4.41242 17.2129 3.47049C15.9671 2.52857 14.5147 1.92927 12.8557 1.6726C13.4261 2.42305 13.939 3.28146 14.3945 4.24783C14.85 5.21338 15.2085 6.20094 15.47 7.21049ZM8.3897 7.21049H14.2099C13.8873 6.06323 13.4892 5.02597 13.0158 4.09871C12.5424 3.17146 11.9704 2.30938 11.2998 1.51249C10.6292 2.30857 10.0572 3.17064 9.58381 4.09871C9.1104 5.02679 8.71155 6.06405 8.3897 7.21049ZM2.44481 7.21049H7.13081C7.39236 6.20175 7.75088 5.2142 8.20636 4.24783C8.66185 3.28146 9.17477 2.42305 9.74514 1.6726C8.07151 1.93009 6.61544 2.53305 5.37692 3.48149C4.1384 4.43157 3.16063 5.67416 2.44359 7.20927"/>
</mask>
<path d="M11.2998 22.3C9.78588 22.3 8.35996 22.0108 7.02203 21.4323C5.68411 20.8529 4.51892 20.0666 3.52648 19.0734C2.53403 18.0801 1.74774 16.9149 1.16759 15.5778C0.587441 14.2407 0.298182 12.8148 0.299812 11.3C0.299812 9.78123 0.589071 8.35408 1.16759 7.0186C1.74692 5.68231 2.53322 4.51834 3.52648 3.52671C4.51974 2.53508 5.68492 1.74879 7.02203 1.16783C8.35996 0.589308 9.78588 0.300049 11.2998 0.300049C12.8186 0.300049 14.2458 0.589308 15.5813 1.16783C16.9175 1.74716 18.0819 2.53346 19.0744 3.52671C20.0668 4.51997 20.8527 5.68394 21.432 7.0186C22.0105 8.3549 22.2998 9.78205 22.2998 11.3C22.2998 12.814 22.0105 14.2399 21.432 15.5778C20.8527 16.9157 20.0664 18.0809 19.0731 19.0734C18.0799 20.0658 16.9159 20.8521 15.5813 21.4323C14.2466 22.0124 12.8194 22.3017 11.2998 22.3ZM11.2998 21.0876C12.0168 20.166 12.6084 19.2612 13.0745 18.373C13.5397 17.4849 13.9182 16.4908 14.2099 15.3908H8.3897C8.71318 16.5527 9.0994 17.5778 9.54836 18.4659C9.99814 19.3541 10.582 20.228 11.2998 21.0876ZM9.74392 20.9043C9.17355 20.232 8.65288 19.4009 8.18192 18.4109C7.71096 17.4217 7.36059 16.4146 7.13081 15.3896H2.44359C3.14433 16.9092 4.13718 18.1559 5.42214 19.1296C6.70792 20.1025 8.14851 20.694 9.74392 20.9043ZM12.8557 20.9043C14.4511 20.694 15.8917 20.1025 17.1775 19.1296C18.4624 18.1559 19.4553 16.9092 20.156 15.3896H15.47C15.1604 16.4301 14.7705 17.445 14.3004 18.4342C13.8294 19.4242 13.3478 20.2483 12.8557 20.9043ZM1.94492 14.1686H6.87659C6.7837 13.6667 6.71851 13.1778 6.68103 12.7019C6.64192 12.2269 6.62237 11.7596 6.62237 11.3C6.62237 10.8405 6.64151 10.3732 6.67981 9.89816C6.71811 9.42312 6.78329 8.93423 6.87537 8.43149H1.94614C1.81333 8.85519 1.70944 9.31679 1.63448 9.81627C1.55951 10.3149 1.52203 10.8095 1.52203 11.3C1.52203 11.7906 1.55911 12.2856 1.63326 12.785C1.7074 13.2845 1.81129 13.7453 1.94492 14.1674M8.09881 14.1674H14.5008C14.5937 13.6663 14.6589 13.1855 14.6964 12.7252C14.7355 12.2656 14.755 11.7906 14.755 11.3C14.755 10.8095 14.7359 10.3345 14.6976 9.87493C14.6593 9.41538 14.5941 8.93464 14.502 8.43271H8.09759C8.00551 8.93382 7.94033 9.41456 7.90203 9.87493C7.86374 10.3345 7.84459 10.8095 7.84459 11.3C7.84459 11.7906 7.86374 12.2656 7.90203 12.7252C7.94033 13.1847 8.00673 13.6655 8.09881 14.1674ZM15.7243 14.1674H20.6547C20.7875 13.7445 20.8914 13.2837 20.9664 12.785C21.0405 12.2856 21.0776 11.7906 21.0776 11.3C21.0776 10.8095 21.0405 10.3145 20.9664 9.81505C20.8922 9.31556 20.7883 8.85479 20.6547 8.43271H15.723C15.8159 8.93382 15.8811 9.42231 15.9186 9.89816C15.9577 10.374 15.9773 10.8413 15.9773 11.3C15.9773 11.7588 15.9581 12.2261 15.9198 12.7019C15.8815 13.1778 15.8163 13.6667 15.7243 14.1686M15.47 7.21049H20.156C19.4398 5.65908 18.4588 4.41242 17.2129 3.47049C15.9671 2.52857 14.5147 1.92927 12.8557 1.6726C13.4261 2.42305 13.939 3.28146 14.3945 4.24783C14.85 5.21338 15.2085 6.20094 15.47 7.21049ZM8.3897 7.21049H14.2099C13.8873 6.06323 13.4892 5.02597 13.0158 4.09871C12.5424 3.17146 11.9704 2.30938 11.2998 1.51249C10.6292 2.30857 10.0572 3.17064 9.58381 4.09871C9.1104 5.02679 8.71155 6.06405 8.3897 7.21049ZM2.44481 7.21049H7.13081C7.39236 6.20175 7.75088 5.2142 8.20636 4.24783C8.66185 3.28146 9.17477 2.42305 9.74514 1.6726C8.07151 1.93009 6.61544 2.53305 5.37692 3.48149C4.1384 4.43157 3.16063 5.67416 2.44359 7.20927" fill="#313131"/>
<path d="M11.2998 22.3L11.3001 22H11.2998V22.3ZM7.02203 21.4323L6.90282 21.7076L6.90297 21.7076L7.02203 21.4323ZM0.299812 11.3L0.599812 11.3004V11.3H0.299812ZM1.16759 7.0186L0.892343 6.89927L0.892308 6.89935L1.16759 7.0186ZM7.02203 1.16783L6.90297 0.892466L6.90248 0.892676L7.02203 1.16783ZM15.5813 1.16783L15.7006 0.89258L15.7005 0.892545L15.5813 1.16783ZM21.432 7.0186L21.7073 6.89941L21.7072 6.89915L21.432 7.0186ZM21.432 15.5778L21.7073 15.697L21.7074 15.6969L21.432 15.5778ZM11.2998 21.0876L11.0695 21.2799L11.3081 21.5655L11.5366 21.2718L11.2998 21.0876ZM13.0745 18.373L13.3401 18.5124L13.3402 18.5123L13.0745 18.373ZM14.2099 15.3908L14.4999 15.4677L14.5998 15.0908H14.2099V15.3908ZM8.3897 15.3908V15.0908H7.99477L8.10069 15.4713L8.3897 15.3908ZM9.54836 18.4659L9.28063 18.6013L9.28073 18.6015L9.54836 18.4659ZM9.74392 20.9043L9.70473 21.2017L10.4759 21.3033L9.97267 20.7102L9.74392 20.9043ZM8.18192 18.4109L8.45283 18.2821L8.45279 18.282L8.18192 18.4109ZM7.13081 15.3896L7.42354 15.324L7.37101 15.0896H7.13081V15.3896ZM2.44359 15.3896V15.0896H1.97489L2.17116 15.5152L2.44359 15.3896ZM5.42214 19.1296L5.24096 19.3687L5.24113 19.3688L5.42214 19.1296ZM12.8557 20.9043L12.6157 20.7242L12.1875 21.2949L12.8949 21.2017L12.8557 20.9043ZM17.1775 19.1296L17.3585 19.3688L17.3587 19.3687L17.1775 19.1296ZM20.156 15.3896L20.4285 15.5152L20.6247 15.0896H20.156V15.3896ZM15.47 15.3896V15.0896H15.2463L15.1825 15.304L15.47 15.3896ZM14.3004 18.4342L14.5713 18.563L14.5713 18.5629L14.3004 18.4342ZM6.87659 14.1686V14.4686H7.2372L7.17158 14.114L6.87659 14.1686ZM6.68103 12.7019L6.98011 12.6784L6.98002 12.6773L6.68103 12.7019ZM6.87537 8.43149L7.17046 8.48553L7.2353 8.13149H6.87537V8.43149ZM1.94614 8.43149V8.13149H1.72579L1.65988 8.34176L1.94614 8.43149ZM1.63448 9.81627L1.93114 9.86087L1.93116 9.86079L1.63448 9.81627ZM8.09881 14.1674L7.80373 14.2215L7.84884 14.4674H8.09881V14.1674ZM14.5008 14.1674V14.4674H14.7503L14.7958 14.2221L14.5008 14.1674ZM14.6964 12.7252L14.3974 12.6997L14.3974 12.7008L14.6964 12.7252ZM14.502 8.43271L14.7971 8.37858L14.752 8.13271H14.502V8.43271ZM8.09759 8.43271V8.13271H7.84769L7.80253 8.3785L8.09759 8.43271ZM7.90203 9.87493L8.201 9.89985L8.201 9.8998L7.90203 9.87493ZM20.6547 14.1674V14.4674H20.8749L20.9409 14.2573L20.6547 14.1674ZM20.9664 12.785L21.263 12.8296L21.2631 12.8291L20.9664 12.785ZM20.6547 8.43271L20.9407 8.34216L20.8744 8.13271H20.6547V8.43271ZM15.723 8.43271V8.13271H15.3623L15.4281 8.48739L15.723 8.43271ZM15.9186 9.89816L15.6195 9.92171L15.6196 9.92273L15.9186 9.89816ZM15.47 7.21049L15.1796 7.28573L15.2378 7.51049H15.47V7.21049ZM20.156 7.21049V7.51049H20.625L20.4284 7.08475L20.156 7.21049ZM12.8557 1.6726L12.9016 1.37613L12.1672 1.26251L12.6169 1.85414L12.8557 1.6726ZM14.3945 4.24783L14.1231 4.37573L14.1231 4.37582L14.3945 4.24783ZM8.3897 7.21049L8.10086 7.1294L7.99388 7.51049H8.3897V7.21049ZM14.2099 7.21049V7.51049H14.6059L14.4987 7.12927L14.2099 7.21049ZM11.2998 1.51249L11.5293 1.31933L11.2999 1.0467L11.0704 1.31922L11.2998 1.51249ZM7.13081 7.21049V7.51049H7.36294L7.42121 7.28579L7.13081 7.21049ZM9.74514 1.6726L9.98399 1.85414L10.4331 1.26324L9.69952 1.37609L9.74514 1.6726ZM5.37692 3.48149L5.19452 3.24331L5.19433 3.24346L5.37692 3.48149ZM11.2998 22.3V22C9.82522 22 8.43998 21.7185 7.1411 21.1569L7.02203 21.4323L6.90297 21.7076C8.27994 22.303 9.74654 22.6 11.2998 22.6V22.3ZM7.02203 21.4323L7.14124 21.157C5.83667 20.5921 4.70338 19.8268 3.7387 18.8613L3.52648 19.0734L3.31426 19.2854C4.33446 20.3065 5.53154 21.1138 6.90282 21.7076L7.02203 21.4323ZM3.52648 19.0734L3.7387 18.8613C2.77389 17.8957 2.00853 16.7623 1.4428 15.4584L1.16759 15.5778L0.892377 15.6972C1.48694 17.0676 2.29417 18.2645 3.31426 19.2854L3.52648 19.0734ZM1.16759 15.5778L1.4428 15.4584C0.879692 14.1606 0.598224 12.7756 0.599811 11.3004L0.299812 11.3L-0.000188291 11.2997C-0.00186047 12.854 0.29519 14.3208 0.892377 15.6972L1.16759 15.5778ZM0.299812 11.3H0.599812C0.599812 9.82043 0.881368 8.43405 1.44287 7.13785L1.16759 7.0186L0.892308 6.89935C0.296774 8.27411 -0.00018847 9.74203 -0.00018847 11.3H0.299812ZM1.16759 7.0186L1.44284 7.13793C2.0077 5.83501 2.77295 4.70292 3.73843 3.73902L3.52648 3.52671L3.31452 3.31441C2.29348 4.33377 1.48614 5.5296 0.892343 6.89927L1.16759 7.0186ZM3.52648 3.52671L3.73843 3.73902C4.70407 2.77497 5.83758 2.00955 7.14158 1.44298L7.02203 1.16783L6.90248 0.892676C5.53226 1.48802 4.3354 2.2952 3.31452 3.31441L3.52648 3.52671ZM7.02203 1.16783L7.1411 1.44319C8.43998 0.881552 9.82522 0.600049 11.2998 0.600049V0.300049V4.88162e-05C9.74654 4.88162e-05 8.27994 0.297064 6.90297 0.892466L7.02203 1.16783ZM11.2998 0.300049V0.600049C12.7794 0.600049 14.1658 0.881605 15.462 1.44311L15.5813 1.16783L15.7005 0.892545C14.3257 0.297011 12.8578 4.88162e-05 11.2998 4.88162e-05V0.300049ZM15.5813 1.16783L15.4619 1.44307C16.7649 2.00795 17.8974 2.77323 18.8621 3.73876L19.0744 3.52671L19.2866 3.31467C18.2664 2.29369 17.0702 1.48637 15.7006 0.89258L15.5813 1.16783ZM19.0744 3.52671L18.8621 3.73876C19.827 4.70441 20.5919 5.83666 21.1568 7.13805L21.432 7.0186L21.7072 6.89915C21.1134 5.53121 20.3066 4.33553 19.2866 3.31467L19.0744 3.52671ZM21.432 7.0186L21.1567 7.13779C21.7183 8.43486 21.9998 9.82127 21.9998 11.3H22.2998H22.5998C22.5998 9.74283 22.3028 8.27493 21.7073 6.89941L21.432 7.0186ZM22.2998 11.3H21.9998C21.9998 12.7746 21.7183 14.1599 21.1567 15.4588L21.432 15.5778L21.7074 15.6969C22.3028 14.3199 22.5998 12.8533 22.5998 11.3H22.2998ZM21.432 15.5778L21.1567 15.4586C20.5918 16.7632 19.8266 17.8965 18.8611 18.8612L19.0731 19.0734L19.2852 19.2856C20.3062 18.2654 21.1136 17.0683 21.7073 15.697L21.432 15.5778ZM19.0731 19.0734L18.8611 18.8612C17.8954 19.8261 16.7631 20.5914 15.4617 21.1571L15.5813 21.4323L15.7008 21.7074C17.0687 21.1128 18.2644 20.3056 19.2852 19.2856L19.0731 19.0734ZM15.5813 21.4323L15.4617 21.1571C14.1665 21.7201 12.7804 22.0016 11.3001 22L11.2998 22.3L11.2995 22.6C12.8585 22.6017 14.3267 22.3047 15.7008 21.7074L15.5813 21.4323ZM11.2998 21.0876L11.5366 21.2718C12.2628 20.3384 12.8646 19.4187 13.3401 18.5124L13.0745 18.373L12.8088 18.2336C12.3522 19.1037 11.7709 19.9936 11.063 20.9034L11.2998 21.0876ZM13.0745 18.373L13.3402 18.5123C13.8171 17.6019 14.2032 16.5865 14.4999 15.4677L14.2099 15.3908L13.9199 15.3139C13.6332 16.3952 13.2623 17.3679 12.8087 18.2338L13.0745 18.373ZM14.2099 15.3908V15.0908H8.3897V15.3908V15.6908H14.2099V15.3908ZM8.3897 15.3908L8.10069 15.4713C8.42838 16.6483 8.82116 17.6923 9.28063 18.6013L9.54836 18.4659L9.8161 18.3306C9.37764 17.4632 8.99798 16.4572 8.67871 15.3104L8.3897 15.3908ZM9.54836 18.4659L9.28073 18.6015C9.74195 19.5122 10.3389 20.4049 11.0695 21.2799L11.2998 21.0876L11.5301 20.8953C10.825 20.051 10.2543 19.1959 9.816 18.3304L9.54836 18.4659ZM9.74392 20.9043L9.97267 20.7102C9.42262 20.0619 8.91521 19.254 8.45283 18.2821L8.18192 18.4109L7.91101 18.5398C8.39055 19.5478 8.92448 20.4022 9.51517 21.0984L9.74392 20.9043ZM8.18192 18.4109L8.45279 18.282C7.99104 17.3121 7.64822 16.3262 7.42354 15.324L7.13081 15.3896L6.83807 15.4552C7.07296 16.503 7.43087 17.5313 7.91105 18.5399L8.18192 18.4109ZM7.13081 15.3896V15.0896H2.44359V15.3896V15.6896H7.13081V15.3896ZM2.44359 15.3896L2.17116 15.5152C2.89172 17.0778 3.9152 18.3641 5.24096 19.3687L5.42214 19.1296L5.60333 18.8905C4.35916 17.9477 3.39694 16.7406 2.71602 15.264L2.44359 15.3896ZM5.42214 19.1296L5.24113 19.3688C6.56826 20.373 8.0577 20.9847 9.70473 21.2017L9.74392 20.9043L9.78311 20.6068C8.23933 20.4034 6.84759 19.832 5.60316 18.8904L5.42214 19.1296ZM12.8557 20.9043L12.8949 21.2017C14.5419 20.9847 16.0314 20.373 17.3585 19.3688L17.1775 19.1296L16.9965 18.8904C15.752 19.832 14.3603 20.4034 12.8165 20.6068L12.8557 20.9043ZM17.1775 19.1296L17.3587 19.3687C18.6844 18.3641 19.7079 17.0778 20.4285 15.5152L20.156 15.3896L19.8836 15.264C19.2027 16.7406 18.2405 17.9477 16.9963 18.8905L17.1775 19.1296ZM20.156 15.3896V15.0896H15.47V15.3896V15.6896H20.156V15.3896ZM15.47 15.3896L15.1825 15.304C14.8773 16.3296 14.493 17.33 14.0294 18.3054L14.3004 18.4342L14.5713 18.5629C15.048 17.5599 15.4435 16.5306 15.7576 15.4752L15.47 15.3896ZM14.3004 18.4342L14.0295 18.3053C13.5643 19.283 13.0926 20.0887 12.6157 20.7242L12.8557 20.9043L13.0957 21.0843C13.6031 20.408 14.0945 19.5653 14.5713 18.563L14.3004 18.4342ZM1.94492 14.1686V14.4686H6.87659V14.1686V13.8686H1.94492V14.1686ZM6.87659 14.1686L7.17158 14.114C7.08046 13.6216 7.01671 13.1431 6.98011 12.6784L6.68103 12.7019L6.38196 12.7255C6.42031 13.2124 6.48694 13.7117 6.5816 14.2232L6.87659 14.1686ZM6.68103 12.7019L6.98002 12.6773C6.94156 12.2102 6.92237 11.7511 6.92237 11.3H6.62237H6.32237C6.32237 11.7681 6.34228 12.2436 6.38204 12.7266L6.68103 12.7019ZM6.62237 11.3H6.92237C6.92237 10.8488 6.94117 10.3896 6.97884 9.92226L6.67981 9.89816L6.38078 9.87405C6.34186 10.3568 6.32237 10.8322 6.32237 11.3H6.62237ZM6.67981 9.89816L6.97884 9.92226C7.01627 9.45796 7.08007 8.97907 7.17046 8.48553L6.87537 8.43149L6.58027 8.37745C6.48651 8.88939 6.41994 9.38828 6.38078 9.87405L6.67981 9.89816ZM6.87537 8.43149V8.13149H1.94614V8.43149V8.73149H6.87537V8.43149ZM1.94614 8.43149L1.65988 8.34176C1.52185 8.78209 1.41476 9.25899 1.3378 9.77174L1.63448 9.81627L1.93116 9.86079C2.00413 9.37459 2.10481 8.9283 2.23241 8.52122L1.94614 8.43149ZM1.63448 9.81627L1.33781 9.77167C1.26069 10.2847 1.22203 10.7942 1.22203 11.3H1.52203H1.82203C1.82203 10.8249 1.85834 10.3452 1.93114 9.86087L1.63448 9.81627ZM1.52203 11.3H1.22203C1.22203 11.8057 1.26026 12.3155 1.33651 12.8291L1.63326 12.785L1.93 12.741C1.85796 12.2557 1.82203 11.7754 1.82203 11.3H1.52203ZM1.63326 12.785L1.33651 12.8291C1.41268 13.3422 1.51986 13.8187 1.65891 14.2579L1.94492 14.1674L2.23093 14.0768C2.10272 13.6719 2.00213 13.2269 1.93 12.741L1.63326 12.785ZM8.09881 14.1674V14.4674H14.5008V14.1674V13.8674H8.09881V14.1674ZM14.5008 14.1674L14.7958 14.2221C14.8903 13.7119 14.957 13.221 14.9954 12.7495L14.6964 12.7252L14.3974 12.7008C14.3608 13.15 14.297 13.6206 14.2058 14.1127L14.5008 14.1674ZM14.6964 12.7252L14.9953 12.7506C15.0352 12.2821 15.055 11.7985 15.055 11.3H14.755H14.455C14.455 11.7826 14.4358 12.2491 14.3974 12.6997L14.6964 12.7252ZM14.755 11.3H15.055C15.055 10.8017 15.0356 10.3184 14.9965 9.85002L14.6976 9.87493L14.3986 9.89985C14.4362 10.3506 14.455 10.8173 14.455 11.3H14.755ZM14.6976 9.87493L14.9965 9.85002C14.9574 9.3797 14.8908 8.88917 14.7971 8.37858L14.502 8.43271L14.207 8.48684C14.2974 8.9801 14.3612 9.45106 14.3986 9.89985L14.6976 9.87493ZM14.502 8.43271V8.13271H8.09759V8.43271V8.73271H14.502V8.43271ZM8.09759 8.43271L7.80253 8.3785C7.70885 8.88835 7.64226 9.37891 7.60306 9.85006L7.90203 9.87493L8.201 9.8998C8.2384 9.45022 8.30218 8.9793 8.39265 8.48693L8.09759 8.43271ZM7.90203 9.87493L7.60307 9.85002C7.56404 10.3184 7.54459 10.8017 7.54459 11.3H7.84459H8.14459C8.14459 10.8173 8.16343 10.3506 8.201 9.89985L7.90203 9.87493ZM7.84459 11.3H7.54459C7.54459 11.7984 7.56404 12.2817 7.60307 12.7501L7.90203 12.7252L8.201 12.7002C8.16343 12.2495 8.14459 11.7828 8.14459 11.3H7.84459ZM7.90203 12.7252L7.60307 12.7501C7.6423 13.2209 7.71017 13.7114 7.80373 14.2215L8.09881 14.1674L8.39388 14.1132C8.3033 13.6195 8.23836 13.1486 8.201 12.7002L7.90203 12.7252ZM15.7243 14.1674V14.4674H20.6547V14.1674V13.8674H15.7243V14.1674ZM20.6547 14.1674L20.9409 14.2573C21.079 13.8177 21.1861 13.3416 21.263 12.8296L20.9664 12.785L20.6697 12.7404C20.5967 13.2258 20.4961 13.6713 20.3685 14.0775L20.6547 14.1674ZM20.9664 12.785L21.2631 12.8291C21.3394 12.3155 21.3776 11.8057 21.3776 11.3H21.0776H20.7776C20.7776 11.7754 20.7417 12.2557 20.6696 12.741L20.9664 12.785ZM21.0776 11.3H21.3776C21.3776 10.7944 21.3394 10.2846 21.2631 9.77099L20.9664 9.81505L20.6696 9.8591C20.7417 10.3444 20.7776 10.8247 20.7776 11.3H21.0776ZM20.9664 9.81505L21.2631 9.77099C21.1869 9.2579 21.0798 8.78136 20.9407 8.34216L20.6547 8.43271L20.3687 8.52326C20.4969 8.92821 20.5975 9.37323 20.6696 9.8591L20.9664 9.81505ZM20.6547 8.43271V8.13271H15.723V8.43271V8.73271H20.6547V8.43271ZM15.723 8.43271L15.4281 8.48739C15.5192 8.97889 15.5829 9.45697 15.6195 9.92171L15.9186 9.89816L16.2177 9.8746C16.1793 9.38764 16.1127 8.88875 16.018 8.37803L15.723 8.43271ZM15.9186 9.89816L15.6196 9.92273C15.6581 10.3907 15.6773 10.8498 15.6773 11.3H15.9773H16.2773C16.2773 10.8328 16.2573 10.3573 16.2176 9.87358L15.9186 9.89816ZM15.9773 11.3H15.6773C15.6773 11.7504 15.6585 12.2097 15.6208 12.6779L15.9198 12.7019L16.2188 12.726C16.2578 12.2425 16.2773 11.7671 16.2773 11.3H15.9773ZM15.9198 12.7019L15.6208 12.6779C15.5833 13.143 15.5195 13.6218 15.4292 14.1145L15.7243 14.1686L16.0193 14.2227C16.1131 13.7115 16.1797 13.2126 16.2188 12.726L15.9198 12.7019ZM15.47 7.21049V7.51049H20.156V7.21049V6.91049H15.47V7.21049ZM20.156 7.21049L20.4284 7.08475C19.6935 5.49285 18.6827 4.20561 17.3938 3.23119L17.2129 3.47049L17.032 3.7098C18.2349 4.61923 19.1861 5.82532 19.8837 7.33624L20.156 7.21049ZM17.2129 3.47049L17.3938 3.23119C16.1055 2.25711 14.6058 1.6398 12.9016 1.37613L12.8557 1.6726L12.8098 1.96908C14.4235 2.21874 15.8287 2.80003 17.032 3.7098L17.2129 3.47049ZM12.8557 1.6726L12.6169 1.85414C13.173 2.58585 13.6754 3.42586 14.1231 4.37573L14.3945 4.24783L14.6658 4.11992C14.2026 3.13705 13.6791 2.26025 13.0945 1.49107L12.8557 1.6726ZM14.3945 4.24783L14.1231 4.37582C14.5708 5.32483 14.9229 6.29474 15.1796 7.28573L15.47 7.21049L15.7604 7.13525C15.4941 6.10713 15.1291 5.10194 14.6658 4.11983L14.3945 4.24783ZM8.3897 7.21049V7.51049H14.2099V7.21049V6.91049H8.3897V7.21049ZM14.2099 7.21049L14.4987 7.12927C14.1714 5.96562 13.7666 4.90951 13.283 3.9623L13.0158 4.09871L12.7486 4.23513C13.2118 5.14243 13.6031 6.16084 13.9211 7.29172L14.2099 7.21049ZM13.0158 4.09871L13.283 3.9623C12.7992 3.01475 12.2146 2.13364 11.5293 1.31933L11.2998 1.51249L11.0703 1.70565C11.7262 2.48512 12.2856 3.32816 12.7486 4.23513L13.0158 4.09871ZM11.2998 1.51249L11.0704 1.31922C10.385 2.13279 9.80035 3.01398 9.31657 3.9624L9.58381 4.09871L9.85105 4.23503C10.3141 3.3273 10.8734 2.48434 11.5293 1.70577L11.2998 1.51249ZM9.58381 4.09871L9.31657 3.9624C8.83307 4.91024 8.42739 5.96632 8.10086 7.1294L8.3897 7.21049L8.67853 7.29158C8.99571 6.16177 9.38773 5.14333 9.85105 4.23503L9.58381 4.09871ZM2.44481 7.21049V7.51049H7.13081V7.21049V6.91049H2.44481V7.21049ZM7.13081 7.21049L7.42121 7.28579C7.67795 6.29559 8.03002 5.32562 8.47773 4.37573L8.20636 4.24783L7.935 4.11992C7.47175 5.10277 7.10678 6.10791 6.84041 7.13519L7.13081 7.21049ZM8.20636 4.24783L8.47773 4.37573C8.92544 3.42586 9.42785 2.58585 9.98399 1.85414L9.74514 1.6726L9.5063 1.49107C8.92169 2.26025 8.39825 3.13705 7.935 4.11992L8.20636 4.24783ZM9.74514 1.6726L9.69952 1.37609C7.9805 1.64056 6.47638 2.26167 5.19452 3.24331L5.37692 3.48149L5.55932 3.71968C6.75449 2.80442 8.16253 2.21961 9.79076 1.96912L9.74514 1.6726ZM5.37692 3.48149L5.19433 3.24346C3.91438 4.22532 2.90742 5.50736 2.17178 7.08231L2.44359 7.20927L2.7154 7.33623C3.41383 5.84096 4.36243 4.63782 5.55952 3.71952L5.37692 3.48149Z" fill="#313131" mask="url(#path-1-outside-1_248_565)"/>
</svg>
