<svg width="41" height="41" viewBox="0 0 41 41" fill="none" xmlns="http://www.w3.org/2000/svg">
<path d="M20.5 1.28101C31.1139 1.28101 39.7188 9.88588 39.7188 20.4998C39.7188 31.1136 31.1139 39.7185 20.5 39.7185C9.88613 39.7185 1.28125 31.1136 1.28125 20.4998C1.28125 9.88588 9.88613 1.28101 20.5 1.28101Z" fill="#8FBFFA"/>
<path d="M20.9271 1.70827C20.9271 6.55396 19.1334 10.9811 16.1737 14.3619L20.5 18.6891L33.1537 6.03462C33.7977 6.59837 34.4016 7.20198 34.9654 7.84546L22.3117 20.4999L26.6381 24.8263C30.2466 21.6585 34.9142 19.9633 39.7145 20.0771C39.7174 20.2183 39.7188 20.3593 39.7188 20.4999C39.7188 21.2231 39.6795 21.9358 39.6009 22.6379L39.2917 22.6354C35.316 22.6292 31.4703 24.0511 28.4549 26.6422L34.9654 33.1536C34.4018 33.7962 33.7969 34.4014 33.1545 34.9653L26.6424 28.4548C23.9813 31.551 22.5556 35.5199 22.638 39.6017C21.7878 39.695 20.9324 39.7326 20.0772 39.7144C20.0744 39.5738 20.073 39.4328 20.073 39.2916C20.073 34.4459 21.8667 30.0188 24.8264 26.638L20.5 22.3108L7.84642 34.9653C7.20377 34.4017 6.59859 33.7968 6.03473 33.1544L18.6884 20.4999L14.362 16.1736C10.7535 19.3414 6.08588 21.0366 1.28556 20.9227C1.26764 20.0676 1.30559 19.2122 1.39917 18.362C1.50167 18.3637 1.60474 18.3645 1.70837 18.3645C5.84681 18.3645 9.63248 16.8552 12.5452 14.3576L6.03473 7.84631C6.59829 7.20366 7.20318 6.59848 7.84556 6.03462L14.3577 12.5451C17.0188 9.44884 18.4445 5.48 18.3621 1.3982C19.2123 1.30492 20.0677 1.26725 20.9229 1.28545C20.9257 1.42668 20.9271 1.56761 20.9271 1.70827Z" fill="#2859C5"/>
</svg>
